<svg xmlns="http://www.w3.org/2000/svg" viewBox="0 0 800.7 152.0" width="800.7" height="152.0" role="img" aria-label="nexumcore"><g transform="translate(16,16)"><circle cx="60" cy="60" r="56" fill="none" stroke="#FFFFFF" stroke-width="4"/><circle cx="60" cy="60" r="46" fill="#FFFFFF"/><circle cx="60" cy="60" r="39" fill="none" stroke="#378ADD" stroke-width="2"/><rect x="44" y="36" width="11" height="48" fill="#185FA5"/><rect x="65" y="36" width="11" height="48" fill="#185FA5"/><polygon points="44,36 55,36 76,84 65,84" fill="#185FA5"/></g><g transform="translate(164.0,38.8) scale(0.87626)"><path d="M1124 676V0H940V670Q940 829 878.0 908.0Q816 987 692 987Q543 987 457.0 892.0Q371 797 371 633V0H186V1120H371V946Q437 1047 526.5 1097.0Q616 1147 733 1147Q926 1147 1025.0 1027.5Q1124 908 1124 676Z" fill="#FFFFFF" transform="translate(8.00,75.21) scale(0.05859,-0.05859)"/><path d="M1151 606V516H305Q317 326 419.5 226.5Q522 127 705 127Q811 127 910.5 153.0Q1010 179 1108 231V57Q1009 15 905.0 -7.0Q801 -29 694 -29Q426 -29 269.5 127.0Q113 283 113 549Q113 824 261.5 985.5Q410 1147 662 1147Q888 1147 1019.5 1001.5Q1151 856 1151 606ZM967 660Q965 811 882.5 901.0Q800 991 664 991Q510 991 417.5 904.0Q325 817 311 659Z" fill="#FFFFFF" transform="translate(86.05,75.21) scale(0.05859,-0.05859)"/><path d="M1124 1120 719 575 1145 0H928L602 440L276 0H59L494 586L96 1120H313L610 721L907 1120Z" fill="#FFFFFF" transform="translate(161.88,75.21) scale(0.05859,-0.05859)"/><path d="M174 442V1120H358V449Q358 290 420.0 210.5Q482 131 606 131Q755 131 841.5 226.0Q928 321 928 485V1120H1112V0H928V172Q861 70 772.5 20.5Q684 -29 567 -29Q374 -29 274.0 91.0Q174 211 174 442ZM637 1147Z" fill="#FFFFFF" transform="translate(234.90,75.21) scale(0.05859,-0.05859)"/><path d="M1065 905Q1134 1029 1230.0 1088.0Q1326 1147 1456 1147Q1631 1147 1726.0 1024.5Q1821 902 1821 676V0H1636V670Q1636 831 1579.0 909.0Q1522 987 1405 987Q1262 987 1179.0 892.0Q1096 797 1096 633V0H911V670Q911 832 854.0 909.5Q797 987 678 987Q537 987 454.0 891.5Q371 796 371 633V0H186V1120H371V946Q434 1049 522.0 1098.0Q610 1147 731 1147Q853 1147 938.5 1085.0Q1024 1023 1065 905Z" fill="#FFFFFF" transform="translate(312.95,75.21) scale(0.05859,-0.05859)"/><path d="M999 1077V905Q921 948 842.5 969.5Q764 991 684 991Q505 991 406.0 877.5Q307 764 307 559Q307 354 406.0 240.5Q505 127 684 127Q764 127 842.5 148.5Q921 170 999 213V43Q922 7 839.5 -11.0Q757 -29 664 -29Q411 -29 262.0 130.0Q113 289 113 559Q113 833 263.5 990.0Q414 1147 676 1147Q761 1147 842.0 1129.5Q923 1112 999 1077Z" fill="#B5D4F4" transform="translate(431.85,75.21) scale(0.05859,-0.05859)"/><path d="M627 991Q479 991 393.0 875.5Q307 760 307 559Q307 358 392.5 242.5Q478 127 627 127Q774 127 860.0 243.0Q946 359 946 559Q946 758 860.0 874.5Q774 991 627 991ZM627 1147Q867 1147 1004.0 991.0Q1141 835 1141 559Q1141 284 1004.0 127.5Q867 -29 627 -29Q386 -29 249.5 127.5Q113 284 113 559Q113 835 249.5 991.0Q386 1147 627 1147Z" fill="#B5D4F4" transform="translate(499.82,75.21) scale(0.05859,-0.05859)"/><path d="M842 948Q811 966 774.5 974.5Q738 983 694 983Q538 983 454.5 881.5Q371 780 371 590V0H186V1120H371V946Q429 1048 522.0 1097.5Q615 1147 748 1147Q767 1147 790.0 1144.5Q813 1142 841 1137Z" fill="#B5D4F4" transform="translate(575.24,75.21) scale(0.05859,-0.05859)"/><path d="M1151 606V516H305Q317 326 419.5 226.5Q522 127 705 127Q811 127 910.5 153.0Q1010 179 1108 231V57Q1009 15 905.0 -7.0Q801 -29 694 -29Q426 -29 269.5 127.0Q113 283 113 549Q113 824 261.5 985.5Q410 1147 662 1147Q888 1147 1019.5 1001.5Q1151 856 1151 606ZM967 660Q965 811 882.5 901.0Q800 991 664 991Q510 991 417.5 904.0Q325 817 311 659Z" fill="#B5D4F4" transform="translate(626.58,75.21) scale(0.05859,-0.05859)"/></g></svg>